<svg id="lines" xmlns="http://www.w3.org/2000/svg" viewBox="0 0 951 588.45"><defs><style>.cls-1{fill:none;stroke:#000;stroke-linecap:round;stroke-linejoin:round;stroke-width:5px;}.cls-2{stroke:#191919;stroke-miterlimit:10;}</style></defs><title>1</title><path id="base" class="cls-1" d="M742.12,286.9c0-43.42-108.12-78.62-241.5-78.62s-241.49,35.2-241.49,78.62,108.57,67.64,241.49,78.63c75.51,6.24,138.48-5,137.91-14.08-1.25-19.62-74.88-45.83-139.15-44-95.23,2.78-177.69,55-217.21,135h0a174.74,174.74,0,1,0,44.74,277h0a242.13,242.13,0,0,0,345.56-.64h0A174.7,174.7,0,1,0,716.84,443" transform="translate(-24.5 -205.78)"/><circle class="cls-2" cx="717.62" cy="80.81" r="13.1"/><circle class="cls-2" cx="687.66" cy="238.06" r="13.1"/></svg>