<?xml version="1.0" standalone="no"?>
<!DOCTYPE svg PUBLIC "-//W3C//DTD SVG 20010904//EN"
 "http://www.w3.org/TR/2001/REC-SVG-20010904/DTD/svg10.dtd">
<svg version="1.0" xmlns="http://www.w3.org/2000/svg"
 width="500.000000pt" height="500.000000pt" viewBox="0 0 500.000000 500.000000"
 preserveAspectRatio="xMidYMid meet">
<metadata>
Created by potrace 1.11, written by Peter Selinger 2001-2013
</metadata>
<g transform="translate(0.000000,500.000000) scale(0.100000,-0.100000)"
fill="#000000" stroke="none">
<path d="M2308 4995 c-2 -1 -34 -6 -73 -9 -255 -24 -559 -111 -812 -231 -266
-126 -478 -278 -698 -499 -197 -197 -343 -404 -470 -661 -62 -125 -155 -369
-169 -441 -2 -10 -11 -46 -19 -79 -9 -33 -18 -76 -21 -95 -3 -19 -7 -44 -10
-55 -2 -11 -7 -45 -11 -75 -4 -30 -10 -64 -12 -75 -12 -49 -10 -456 3 -555 19
-147 21 -159 49 -284 76 -335 225 -653 444 -946 99 -132 317 -355 441 -452
387 -299 830 -478 1310 -527 83 -8 466 -7 505 2 11 2 47 8 80 12 63 7 72 9
150 25 28 6 60 12 72 14 60 12 191 52 303 94 504 186 936 533 1230 987 61 95
174 308 214 405 19 48 95 270 101 298 2 9 13 60 25 112 12 52 23 111 26 130 2
19 7 46 9 60 34 175 24 598 -20 825 -14 77 -68 281 -76 290 -5 5 -9 16 -9 25
0 29 -90 242 -151 359 -87 166 -198 332 -318 476 -60 71 -267 271 -346 333
-196 155 -482 316 -690 387 -44 15 -89 31 -100 36 -59 26 -275 74 -450 100
-70 10 -498 22 -507 14z"/>
</g>
</svg>
